<?xml version="1.0" encoding="UTF-8" standalone="no"?>
<!-- Created with Inkscape (http://www.inkscape.org/) -->

<svg
   xmlns:dc="http://purl.org/dc/elements/1.1/"
   xmlns:cc="http://creativecommons.org/ns#"
   xmlns:rdf="http://www.w3.org/1999/02/22-rdf-syntax-ns#"
   xmlns:svg="http://www.w3.org/2000/svg"
   xmlns="http://www.w3.org/2000/svg"
   xmlns:sodipodi="http://sodipodi.sourceforge.net/DTD/sodipodi-0.dtd"
   xmlns:inkscape="http://www.inkscape.org/namespaces/inkscape"
   width="343.48276"
   height="141.34875"
   id="svg2"
   version="1.1"
   inkscape:version="0.48.5 r10040"
   sodipodi:docname="flashlight.svg">
  <defs
     id="defs4" />
  <sodipodi:namedview
     id="base"
     pagecolor="#ffffff"
     bordercolor="#666666"
     borderopacity="1.0"
     inkscape:pageopacity="0.0"
     inkscape:pageshadow="2"
     inkscape:zoom="2.8366514"
     inkscape:cx="216.19925"
     inkscape:cy="58.677585"
     inkscape:document-units="px"
     inkscape:current-layer="layer1"
     showgrid="false"
     inkscape:window-width="1858"
     inkscape:window-height="1057"
     inkscape:window-x="-8"
     inkscape:window-y="-8"
     inkscape:window-maximized="1"
     fit-margin-top="0"
     fit-margin-left="0"
     fit-margin-right="0"
     fit-margin-bottom="0" />
  <metadata
     id="metadata7">
    <rdf:RDF>
      <cc:Work
         rdf:about="">
        <dc:format>image/svg+xml</dc:format>
        <dc:type
           rdf:resource="http://purl.org/dc/dcmitype/StillImage" />
        <dc:title></dc:title>
      </cc:Work>
    </rdf:RDF>
  </metadata>
  <g
     inkscape:label="Layer 1"
     inkscape:groupmode="layer"
     id="layer1"
     transform="translate(-115.65625,-118.87)">
    <path
       sodipodi:type="arc"
       style="fill:#dc50a2;fill-opacity:0;stroke:#000000;stroke-width:3;stroke-linejoin:miter;stroke-miterlimit:4;stroke-opacity:1;stroke-dasharray:none"
       id="path2985"
       sodipodi:cx="157.14285"
       sodipodi:cy="189.50504"
       sodipodi:rx="40"
       sodipodi:ry="68.571426"
       d="m 197.14285,189.50504 c 0,37.87095 -17.90861,68.57142 -40,68.57142 -22.09139,0 -40,-30.70047 -40,-68.57142 0,-37.87096 17.90861,-68.57143 40,-68.57143 22.09139,0 40,30.70047 40,68.57143 z" />
    <path
       transform="matrix(0.80434051,0,0,0.80434051,29.40823,37.849356)"
       sodipodi:type="arc"
       style="fill:#dc50a2;fill-opacity:0;stroke:#000000;stroke-width:3;stroke-linejoin:miter;stroke-miterlimit:4;stroke-opacity:1;stroke-dasharray:none"
       id="path2985-1"
       sodipodi:cx="157.14285"
       sodipodi:cy="189.50504"
       sodipodi:rx="40"
       sodipodi:ry="68.571426"
       d="m 197.14285,189.50504 c 0,37.87095 -17.90861,68.57142 -40,68.57142 -22.09139,0 -40,-30.70047 -40,-68.57142 0,-37.87096 17.90861,-68.57143 40,-68.57143 22.09139,0 40,30.70047 40,68.57143 z" />
    <path
       style="fill:none;stroke:#000000;stroke-width:3;stroke-linecap:butt;stroke-linejoin:miter;stroke-miterlimit:4;stroke-opacity:1;stroke-dasharray:none"
       d="m 157.45484,121.04651 c 24.57132,-4.86107 46.40023,18.1218 68.83045,24.4739 69.63848,36.85441 211.34858,9.4913 229.63617,42.1766 2.50047,22.02102 5.20418,30.28443 -15.25592,47.02925 -67.21429,3.74238 -133.56523,5.78511 -196.03965,4.47609 -30.5218,0.19131 -53.41469,19.51566 -84.34674,19.53097"
       id="path3785"
       inkscape:connector-curvature="0"
       sodipodi:nodetypes="cccccc" />
    <path
       style="fill:none;stroke:#000000;stroke-width:3;stroke-linecap:butt;stroke-linejoin:miter;stroke-miterlimit:4;stroke-opacity:1;stroke-dasharray:none"
       d="m 271.09429,160.4655 c 3.22859,-5.59325 9.56203,-8.66508 15.83422,-9.20804 10.53511,1.34949 33.04798,2.36898 39.85104,5.71373 2.57615,1.51143 5.39574,3.95123 5.112,7.2389 -0.0337,0.77225 -0.20309,1.54038 -0.51528,2.24839"
       id="path3801"
       inkscape:connector-curvature="0"
       sodipodi:nodetypes="ccccc" />
  </g>
</svg>
